PathFileType	4	(X/Y/Z)	Kaydara																																																																																																																									
DataRate	CameraRate	NumFrames	NumMarkers	Units	OrigDataRate	OrigDataStartFrame	OrigNumFrames																																																																																																																					
30	30	4	41	mm	30	59	232																																																																																																																					
Frame#	Time	EMLA_LFHD			EMLA_RFHD			EMLA_LBHD			EMLA_RBHD			EMLA_LFTShould			EMLA_RFTShould			EMLA_LRRShould			EMLA_RRRShould			EMLA_T10			EMLA_STRN			EMLA_TRUN			EMLA_LSHO			EMLA_LUPA			EMLA_LELB			EMLA_LFRM			EMLA_LWRA			EMLA_LWRB			EMLA_LFIN			EMLA_RSHO			EMLA_RUPA			EMLA_RELB			EMLA_RFRM			EMLA_RWRA			EMLA_RWRB			EMLA_RFIN			EMLA_LFWT			EMLA_RFWT			EMLA_LBWT			EMLA_RBWT			EMLA_LTHI			EMLA_LKNE			EMLA_LSHN			EMLA_LANK			EMLA_LHEE			EMLA_LTOE			EMLA_RTHI			EMLA_RKNE			EMLA_RSHN			EMLA_RANK			EMLA_RHEE			EMLA_RTOE		
		X1	Y1	Z1	X2	Y2	Z2	X3	Y3	Z3	X4	Y4	Z4	X5	Y5	Z5	X6	Y6	Z6	X7	Y7	Z7	X8	Y8	Z8	X9	Y9	Z9	X10	Y10	Z10	X11	Y11	Z11	X12	Y12	Z12	X13	Y13	Z13	X14	Y14	Z14	X15	Y15	Z15	X16	Y16	Z16	X17	Y17	Z17	X18	Y18	Z18	X19	Y19	Z19	X20	Y20	Z20	X21	Y21	Z21	X22	Y22	Z22	X23	Y23	Z23	X24	Y24	Z24	X25	Y25	Z25	X26	Y26	Z26	X27	Y27	Z27	X28	Y28	Z28	X29	Y29	Z29	X30	Y30	Z30	X31	Y31	Z31	X32	Y32	Z32	X33	Y33	Z33	X34	Y34	Z34	X35	Y35	Z35	X36	Y36	Z36	X37	Y37	Z37	X38	Y38	Z38	X39	Y39	Z39	X40	Y40	Z40	X41	Y41	Z41
																																																																																																																												
59	1.943	254.55851	1632.27859	-1953.31741	84.87308	1631.53687	-1959.82697	273.50956	1625.43152	-2104.66537	79.23926	1627.44202	-2112.91031	255.9972	1403.02155	-2016.79565	105.66413	1394.72122	-2011.52679	245.84982	1448.54584	-2166.19034	90.40068	1439.72549	-2159.88861	179.67991	1271.75331	-2206.18484	181.36797	1334.41177	-1975.05539	177.41898	1231.95038	-1951.9635	379.2556	1424.34204	-2074.2775	437.71378	1242.66724	-2086.98441	459.39377	1099.29817	-2086.74576	458.97316	962.82814	-2071.4624	374.96029	825.60387	-1982.66235	434.04316	802.52525	-2038.91724	426.42826	774.04182	-1974.41635	-17.38345	1424.34006	-2073.79822	-70.98697	1228.8958	-2060.02838	-85.91887	1082.28752	-2067.29355	-84.66981	982.23518	-2063.52036	-8.43709	833.69514	-1949.6286	-56.62975	806.70639	-2014.7081	-66.53807	781.83365	-1955.84091	282.04393	993.4417	-1968.94333	46.87382	979.44557	-1983.43094	261.98133	1013.37517	-2168.55347	86.62606	1012.42653	-2164.73557	306.1334	726.60728	-2154.82986	309.97181	523.29651	-2114.35501	280.45881	342.28195	-2104.27246	281.30085	165.66429	-2177.4231	215.68316	85.56976	-2236.99615	246.90798	74.45195	-2037.81342	58.21668	713.0777	-2176.93634	25.10829	511.65157	-2121.82953	69.01309	289.70263	-2119.63547	34.93472	131.34151	-2204.57626	92.99317	77.99466	-2256.63742	52.62822	72.01555	-2056.3913
60	1.977	254.53293	1632.24136	-1952.76703	84.85566	1631.31012	-1959.48563	273.69989	1625.51376	-2104.07394	79.39867	1627.37015	-2112.61642	256.25793	1403.02231	-2016.45966	105.73519	1394.66797	-2011.45233	246.14414	1448.50616	-2165.79773	90.71172	1439.69269	-2159.66782	180.00931	1271.65817	-2205.7872	182.1147	1334.12857	-1974.46014	177.52958	1231.77803	-1951.72089	379.44065	1424.1951	-2073.70758	437.85172	1242.60246	-2086.521	459.5187	1099.18472	-2086.60904	459.0604	962.70821	-2071.50208	374.90742	825.37109	-1982.95456	434.04167	802.36633	-2039.16794	426.28742	773.7355	-1974.73358	-17.17736	1424.28528	-2073.6702	-70.69757	1228.76457	-2059.79813	-85.65613	1082.24998	-2067.27173	-84.37165	982.19177	-2063.57727	-8.36824	833.507	-1949.67926	-56.43097	806.58478	-2014.85931	-66.38404	781.64413	-1956.0585	282.26583	993.16521	-1968.67233	47.10004	979.42291	-1983.13599	262.22488	1013.36502	-2168.20526	86.83312	1012.47757	-2164.46091	306.42174	726.55876	-2154.57306	310.13763	523.2317	-2114.11209	280.53007	342.18037	-2104.11209	281.33741	165.59126	-2177.34207	215.69254	85.58659	-2237.06528	246.93243	74.46898	-2037.81982	58.36601	713.10799	-2176.89865	25.15123	511.60877	-2121.66519	69.05359	289.68552	-2119.53476	34.90499	131.31809	-2204.59213	92.9506	77.98399	-2256.62735	52.64184	72.0406	-2056.39175
61	2.01	254.45957	1632.11456	-1952.21527	84.80708	1631.16791	-1959.24881	274.05407	1625.2475	-2103.01315	79.61946	1627.31354	-2112.33688	256.49609	1402.939	-2016.1441	105.85821	1394.41528	-2011.40091	246.3739	1448.46161	-2165.35477	90.94329	1439.58572	-2159.27322	180.25953	1271.57799	-2205.44357	182.53126	1334.01855	-1974.14017	177.73937	1231.61278	-1951.53381	379.70985	1424.14169	-2073.41705	438.06496	1242.50443	-2086.41266	459.56924	1099.06082	-2086.48041	459.07715	962.59079	-2071.53	374.82231	825.1458	-1983.19427	433.99597	802.20154	-2039.38141	426.20567	773.42148	-1974.97025	-16.99354	1424.1806	-2073.4256	-70.48879	1228.60947	-2059.68903	-85.46019	1082.09549	-2067.22321	-84.20366	982.07642	-2063.61328	-8.24652	833.26431	-1949.68338	-56.29209	806.45874	-2014.93134	-66.30633	781.44463	-1956.15829	282.3963	993.20442	-1968.32947	47.28566	979.38156	-1982.79724	262.44165	1013.39066	-2167.84698	87.07907	1012.48627	-2164.16016	306.75304	726.59523	-2154.39911	310.26249	523.15552	-2113.9624	280.60568	342.16057	-2104.06815	281.41321	165.59402	-2177.31415	215.86401	85.47494	-2236.93756	246.93123	74.44304	-2037.83066	58.56194	713.16818	-2176.88431	25.2723	511.62167	-2121.63422	69.13577	289.67266	-2119.51981	34.9388	131.34974	-2204.56512	92.98207	77.96065	-2256.60492	52.6436	71.99802	-2056.39572
62	2.043	254.47689	1632.06345	-1951.69769	84.83598	1631.08109	-1958.89923	274.44899	1625.04654	-2102.05933	79.80861	1627.25296	-2111.98761	256.59851	1402.733	-2015.7608	106.02241	1394.26773	-2011.30203	246.53463	1448.40469	-2165.00046	91.13575	1439.52087	-2158.9032	180.46747	1271.51375	-2205.08606	181.98107	1334.02588	-1974.19922	177.9398	1231.45897	-1951.14059	379.77474	1423.82095	-2072.6738	438.14468	1242.36458	-2086.11771	459.67735	1098.92845	-2086.4183	459.07848	962.43141	-2071.53671	374.84116	824.97459	-1983.23029	433.95981	802.05238	-2039.48441	426.16657	773.27736	-1975.04379	-16.77438	1424.02908	-2073.05969	-70.34218	1228.42819	-2059.47098	-85.31686	1081.99074	-2067.10846	-84.08832	981.92184	-2063.48419	-8.29935	833.02505	-1949.6904	-56.23741	806.31577	-2014.90417	-66.30223	781.26183	-1956.15005	282.61667	993.17001	-1967.93259	47.47504	979.31175	-1982.47711	262.66918	1013.38638	-2167.43301	87.33356	1012.53815	-2163.76266	306.89896	726.65276	-2154.29031	310.36488	523.13408	-2114.05304	280.72012	342.22393	-2104.17847	281.43303	165.59935	-2177.3381	215.74263	85.67075	-2237.0665	246.93483	74.46429	-2037.81647	58.74279	713.1871	-2176.66199	25.43265	511.59359	-2121.59363	69.18218	289.68843	-2119.50806	34.96647	131.3574	-2204.59564	93.00484	78.0133	-2256.62567	52.62475	72.00781	-2056.40335
